<svg xmlns="http://www.w3.org/2000/svg" xmlns:xlink="http://www.w3.org/1999/xlink" xml:space="preserve" version="1.1" style="shape-rendering:geometricPrecision;text-rendering:geometricPrecision;image-rendering:optimizeQuality;" viewBox="0 0 50000 62500" x="0px" y="0px" fill-rule="evenodd" clip-rule="evenodd"><defs><style type="text/css">
   
    .fil0 {fill:black;fill-rule:nonzero}
   
  </style></defs><g><path class="fil0" d="M4443.34 9502.17l19592.95 0c334.03,0 637.52,136.46 857.38,356.32 145.51,145.51 67.15,145.51 212.66,0 219.86,-219.86 523.35,-356.32 857.38,-356.32l19592.95 0c668.05,0 1213.69,545.64 1213.69,1213.69l0 28568.28c0,668.03 -545.66,1213.7 -1213.69,1213.7l-19592.95 0c-334.03,0 -637.53,-136.48 -857.38,-356.33 -145.51,-145.51 -67.15,-145.51 -212.66,0 -219.85,219.85 -523.35,356.33 -857.38,356.33l-19592.95 0c-668.03,0 -1213.69,-545.67 -1213.69,-1213.7l0 -28568.28c0,-668.05 545.64,-1213.69 1213.69,-1213.69zm24040.78 27655.06c-197.31,0 -197.31,-300 0,-300l3485.92 0c197.31,0 197.31,300 0,300l-3485.92 0zm0 -2666.11c-197.31,0 -197.31,-300 0,-300l14552.09 0c197.31,0 197.31,300 0,300l-14552.09 0zm0 -2666.12c-197.31,0 -197.31,-300 0,-300l14552.09 0c197.31,0 197.31,300 0,300l-14552.09 0zm0 -2666.11c-197.31,0 -197.31,-300 0,-300l14552.09 0c197.31,0 197.31,300 0,300l-14552.09 0zm0 -2666.11c-197.31,0 -197.31,-300 0,-300l9730.09 0c197.31,0 197.31,300 0,300l-9730.09 0zm0 -2666.12c-197.31,0 -197.31,-300 0,-300l14552.09 0c197.31,0 197.31,300 0,300l-14552.09 0zm0 -2666.11c-197.31,0 -197.31,-300 0,-300l5232.17 0c197.31,0 197.31,300 0,300l-5232.17 0zm0 -2666.11c-197.31,0 -197.31,-300 0,-300l14552.09 0c197.31,0 197.31,300 0,300l-14552.09 0zm0 -2666.12c-197.31,0 -197.31,-300 0,-300l14552.09 0c197.31,0 197.31,300 0,300l-14552.09 0zm0 -2666.11c-197.31,0 -197.31,-300 0,-300l14552.09 0c197.31,0 197.31,300 0,300l-14552.09 0zm-21520.34 23995.02c-197.31,0 -197.31,-300 0,-300l7543.79 0c197.31,0 197.31,300 0,300l-7543.79 0zm0 -2666.11c-197.31,0 -197.31,-300 0,-300l14552.09 0c197.31,0 197.31,300 0,300l-14552.09 0zm0 -2666.12c-197.31,0 -197.31,-300 0,-300l14552.09 0c197.31,0 197.31,300 0,300l-14552.09 0zm0 -2666.11c-197.31,0 -197.31,-300 0,-300l14552.09 0c197.31,0 197.31,300 0,300l-14552.09 0zm0 -2666.11c-197.31,0 -197.31,-300 0,-300l9872.09 0c197.31,0 197.31,300 0,300l-9872.09 0zm0 -2666.12c-197.31,0 -197.31,-300 0,-300l14552.09 0c197.31,0 197.31,300 0,300l-14552.09 0zm0 -2666.11c-197.31,0 -197.31,-300 0,-300l14552.09 0c197.31,0 197.31,300 0,300l-14552.09 0zm0 -2666.11c-197.31,0 -197.31,-300 0,-300l4421.67 0c197.31,0 197.31,300 0,300l-4421.67 0zm0 -2666.12c-197.31,0 -197.31,-300 0,-300l14552.09 0c197.31,0 197.31,300 0,300l-14552.09 0zm0 -2666.11c-197.31,0 -197.31,-300 0,-300l14552.09 0c197.31,0 197.31,300 0,300l-14552.09 0zm41197.19 209.98c0,-328.84 500,-328.84 500,0l0 23997.29c0,328.84 -500,328.84 -500,0l0 -23997.29zm-22910.97 -2656.33l0 28568.28c0,392.02 321.69,713.7 713.71,713.7l19592.95 0c392.01,0 713.69,-321.69 713.69,-713.7l0 -28568.28c0,-392.03 -321.66,-713.69 -713.69,-713.69l-19592.95 0c-392.02,0 -713.71,321.66 -713.71,713.69zm-23910.97 2296.33c0,-328.84 500,-328.84 500,0l0 23997.29c0,328.84 -500,328.84 -500,0l0 -23997.29zm22697.26 -3010.02l-19592.95 0c-392.03,0 -713.69,321.66 -713.69,713.69l0 28568.28c0,392.01 321.68,713.7 713.69,713.7l19592.95 0c392.02,0 713.71,-321.68 713.71,-713.7l0 -28568.28c0,-392.03 -321.69,-713.69 -713.71,-713.69z"/></g><text x="0" y="50015" fill="#000000" font-size="5px" font-weight="bold" font-family="'Helvetica Neue', Helvetica, Arial-Unicode, Arial, Sans-serif">Created by Oleksandr Panasovskyi</text><text x="0" y="50020" fill="#000000" font-size="5px" font-weight="bold" font-family="'Helvetica Neue', Helvetica, Arial-Unicode, Arial, Sans-serif">from the Noun Project</text></svg>