<svg xmlns="http://www.w3.org/2000/svg" viewBox="0 0 100 125" x="0px" y="0px"><title>Artboard 32</title><g><path d="M84.14,15H15.86A6.87,6.87,0,0,0,9,21.86V64.14A6.87,6.87,0,0,0,15.86,71H44V83H33a1,1,0,0,0,0,2H66a1,1,0,0,0,0-2H55V71H84.14A6.87,6.87,0,0,0,91,64.14V21.86A6.87,6.87,0,0,0,84.14,15ZM15.86,17H84.14A4.87,4.87,0,0,1,89,21.86V57H11V21.86A4.87,4.87,0,0,1,15.86,17ZM53,83H46V71h7ZM89,64.14A4.87,4.87,0,0,1,84.14,69H15.86A4.87,4.87,0,0,1,11,64.14V59H89Z"/><path d="M28,54H46.47a4.25,4.25,0,0,0,3.8,2.31A4.31,4.31,0,0,0,54.08,54L73,54h0a1,1,0,0,0,1-1V24a1,1,0,0,0-1-1H69V20.17a.89.89,0,0,0-.72-1c-.28,0-6.81-1-9.13-1-2.14,0-7.84.82-9,1-1.13-.16-6.85-1-9-1-2.32,0-9,1-9.27,1a1.07,1.07,0,0,0-.93,1V23s.06,0,0,0H28a1,1,0,0,0-1,1V53A1,1,0,0,0,28,54ZM67,21V48.85c-2-.29-6.29-.85-8.05-.85s-5.95.54-7.95.83V21c2-.27,6.27-.85,7.95-.85S65,20.77,67,21ZM33,21c2-.26,6.34-.87,8.05-.87S47,20.75,49,21V48.83c-2-.29-6.21-.83-7.95-.83s-6.05.56-8.05.85Zm-4,4h2c.06,0,0,0,0,0V50a1.14,1.14,0,0,0,1.27,1c.07,0,6.75-1,8.93-1,1.94,0,7.45.78,8.67,1H50l.17,0h.15l.14,0c.82-.12,6.77-1,8.81-1s8.84,1,8.91,1h.15a.69.69,0,0,0,.52-.24A.9.9,0,0,0,69,50V25h3V52L53.42,52h-.06l-.18,0a.93.93,0,0,0-.19.06,1,1,0,0,0-.18.12l-.11.09a1.66,1.66,0,0,0-.21.34s0,0,0,.06a2.29,2.29,0,0,1-2.19,1.63,2.27,2.27,0,0,1-2.18-1.61,1,1,0,0,0-1-.69L47,52H29Z"/><path d="M35.45,27.11a17.08,17.08,0,0,1,4.71-.94,30.52,30.52,0,0,1,5.8,1,1,1,0,1,0,.51-1.93,31.87,31.87,0,0,0-6.31-1,18.85,18.85,0,0,0-5.39,1.06,1,1,0,0,0,.68,1.88Z"/><path d="M35.45,32.94A17.08,17.08,0,0,1,40.17,32,30.52,30.52,0,0,1,46,33,1,1,0,0,0,46.47,31a31.87,31.87,0,0,0-6.31-1,18.85,18.85,0,0,0-5.39,1.06,1,1,0,0,0,.68,1.88Z"/><path d="M54.11,33a1,1,0,0,0,.26,0,30.46,30.46,0,0,1,5.8-1,17.08,17.08,0,0,1,4.71.94,1,1,0,0,0,.68-1.88A18.85,18.85,0,0,0,60.17,30a31.87,31.87,0,0,0-6.31,1,1,1,0,0,0,.26,2Z"/><path d="M54.11,27.17a1,1,0,0,0,.26,0,30.46,30.46,0,0,1,5.8-1,17.08,17.08,0,0,1,4.71.94,1,1,0,0,0,.68-1.88,18.85,18.85,0,0,0-5.39-1.06,31.87,31.87,0,0,0-6.31,1,1,1,0,0,0,.26,2Z"/><path d="M35.45,38.11a17.08,17.08,0,0,1,4.71-.94,30.52,30.52,0,0,1,5.8,1,1,1,0,1,0,.51-1.93,31.87,31.87,0,0,0-6.31-1,18.85,18.85,0,0,0-5.39,1.06,1,1,0,0,0,.68,1.88Z"/><path d="M46.22,44a1,1,0,0,0,.26-2,31.87,31.87,0,0,0-6.31-1,18.85,18.85,0,0,0-5.39,1.06,1,1,0,0,0,.68,1.88A17.08,17.08,0,0,1,40.17,43,30.52,30.52,0,0,1,46,44,1,1,0,0,0,46.22,44Z"/><path d="M65.56,42.06A18.85,18.85,0,0,0,60.17,41a31.87,31.87,0,0,0-6.31,1,1,1,0,0,0,.26,2,1,1,0,0,0,.26,0,30.46,30.46,0,0,1,5.8-1,17.08,17.08,0,0,1,4.71.94,1,1,0,0,0,.68-1.88Z"/><path d="M54.11,38.17a1,1,0,0,0,.26,0,30.46,30.46,0,0,1,5.8-1,17.08,17.08,0,0,1,4.71.94,1,1,0,0,0,.68-1.88,18.85,18.85,0,0,0-5.39-1.06,31.87,31.87,0,0,0-6.31,1,1,1,0,0,0,.26,2Z"/><path d="M49.53,67a2.79,2.79,0,1,0-2.79-2.79A2.79,2.79,0,0,0,49.53,67Zm0-4.07a1.29,1.29,0,1,1-1.29,1.29A1.29,1.29,0,0,1,49.53,63Z"/></g><text x="0" y="115" fill="#000000" font-size="5px" font-weight="bold" font-family="'Helvetica Neue', Helvetica, Arial-Unicode, Arial, Sans-serif">Created by Maria Kislitsina</text><text x="0" y="120" fill="#000000" font-size="5px" font-weight="bold" font-family="'Helvetica Neue', Helvetica, Arial-Unicode, Arial, Sans-serif">from the Noun Project</text></svg>